<svg width="125" height="125" viewBox="0 0 125 125" fill="none" xmlns="http://www.w3.org/2000/svg">
<path d="M80.0782 35.1563C78.0566 35.1554 76.0382 35.3187 74.043 35.6446C73.3334 28.3124 70.3363 21.3888 65.4757 15.8535C60.6151 10.3182 54.1371 6.4513 46.9581 4.79986C46.3134 4.65174 45.6416 4.66978 45.0057 4.8523C44.3699 5.03482 43.7908 5.37583 43.3228 5.84336C42.8547 6.31089 42.5131 6.88961 42.33 7.52528C42.1468 8.16094 42.128 8.83271 42.2755 9.47759C42.7366 11.4942 42.9691 13.5564 42.9688 15.6251C42.9611 22.8747 40.0777 29.8252 34.9515 34.9514C29.8252 40.0777 22.8747 42.9611 15.6251 42.9688C13.5564 42.9691 11.4943 42.7365 9.47762 42.2754C8.8324 42.127 8.16003 42.145 7.52367 42.3277C6.88731 42.5105 6.30783 42.852 5.83967 43.3201C5.37151 43.7883 5.03002 44.3677 4.84729 45.0041C4.66455 45.6405 4.64656 46.3128 4.79501 46.9581C5.8444 51.4831 7.77748 55.7563 10.4832 59.5321C13.1889 63.3078 16.614 66.5118 20.5616 68.96C17.7852 72.7423 16.1112 77.22 15.7253 81.896C15.3394 86.5721 16.2567 91.2636 18.3754 95.4499C20.4941 99.6362 23.7313 103.154 27.7278 105.612C31.7243 108.07 36.3238 109.372 41.0157 109.375H80.0782C89.9202 109.375 99.3591 105.465 106.318 98.506C113.278 91.5466 117.188 82.1077 117.188 72.2657C117.188 62.4237 113.278 52.9847 106.318 46.0254C99.3591 39.066 89.9202 35.1563 80.0782 35.1563ZM14.3409 50.7813C14.7657 50.7813 15.1954 50.7813 15.6251 50.7813C24.9459 50.771 33.8821 47.0637 40.4729 40.4729C47.0637 33.882 50.771 24.9459 50.7813 15.6251C50.7813 15.1905 50.7813 14.7559 50.7813 14.3213C55.2795 16.4263 59.1145 19.7242 61.8693 23.8565C64.6241 27.9887 66.1933 32.7971 66.4063 37.7588C61.6352 39.6535 57.3072 42.514 53.694 46.1607C50.0809 49.8075 47.2606 54.1618 45.4102 58.9503C42.1077 58.3788 38.7246 58.4669 35.4562 59.2094C32.1878 59.9519 29.0988 61.3341 26.3673 63.2764C21.1136 60.5204 16.8942 56.1365 14.3409 50.7813ZM80.0782 101.563H41.0157C38.6115 101.558 36.2338 101.061 34.0296 100.101C31.8254 99.1407 29.8415 97.7388 28.2006 95.9817C26.5597 94.2245 25.2967 92.1494 24.4898 89.8847C23.6828 87.62 23.3489 85.2139 23.5089 82.815C23.6688 80.4162 24.3191 78.0756 25.4197 75.9381C26.5202 73.8006 28.0475 71.9116 29.9071 70.3878C31.7667 68.864 33.9192 67.7379 36.2313 67.0791C38.5435 66.4204 40.9662 66.2429 43.3497 66.5577C43.169 67.7149 43.0421 68.8965 42.9737 70.0879C42.9141 71.1239 43.2686 72.1412 43.959 72.9159C44.6495 73.6906 45.6194 74.1592 46.6554 74.2188C47.6914 74.2784 48.7086 73.9239 49.4833 73.2335C50.258 72.5431 50.7266 71.5732 50.7862 70.5372C50.8958 68.5888 51.2034 66.6566 51.7042 64.7706C51.7042 64.6924 51.7481 64.6143 51.7628 64.5362C53.1985 59.26 56.0808 54.4904 60.0841 50.7658C64.0874 47.0412 69.0522 44.51 74.4181 43.458C79.784 42.4061 85.3371 42.8753 90.4504 44.8126C95.5637 46.7499 100.033 50.0783 103.355 54.4217C106.677 58.7652 108.718 63.9509 109.248 69.3931C109.778 74.8354 108.776 80.3174 106.355 85.2203C103.934 90.1232 100.191 94.2516 95.5476 97.1393C90.9044 100.027 85.5462 101.559 80.0782 101.563Z" fill="#333333"/>
</svg>
