<svg width="60" height="60" viewBox="0 0 60 60" fill="none" xmlns="http://www.w3.org/2000/svg">
<path d="M43.125 20.993V19.6875C43.125 13.8094 34.2586 9.375 22.5 9.375C10.7414 9.375 1.875 13.8094 1.875 19.6875V29.0625C1.875 33.9586 8.02734 37.8492 16.875 39.0141V40.3125C16.875 46.1906 25.7414 50.625 37.5 50.625C49.2586 50.625 58.125 46.1906 58.125 40.3125V30.9375C58.125 26.0859 52.1672 22.1906 43.125 20.993ZM54.375 30.9375C54.375 34.0359 47.1586 37.5 37.5 37.5C36.6258 37.5 35.7586 37.4695 34.9031 37.4133C39.9586 35.5711 43.125 32.5781 43.125 29.0625V24.7828C50.1258 25.8258 54.375 28.657 54.375 30.9375ZM16.875 35.2148V29.6391C18.7401 29.8821 20.6191 30.0027 22.5 30C24.3809 30.0027 26.2599 29.8821 28.125 29.6391V35.2148C26.2627 35.49 24.3825 35.6271 22.5 35.625C20.6175 35.6271 18.7373 35.49 16.875 35.2148ZM39.375 25.7648V29.0625C39.375 31.0289 36.4664 33.1406 31.875 34.4227V28.9453C34.9008 28.2117 37.4625 27.1195 39.375 25.7648ZM22.5 13.125C32.1586 13.125 39.375 16.5891 39.375 19.6875C39.375 22.7859 32.1586 26.25 22.5 26.25C12.8414 26.25 5.625 22.7859 5.625 19.6875C5.625 16.5891 12.8414 13.125 22.5 13.125ZM5.625 29.0625V25.7648C7.5375 27.1195 10.0992 28.2117 13.125 28.9453V34.4227C8.53359 33.1406 5.625 31.0289 5.625 29.0625ZM20.625 40.3125V39.3352C21.2414 39.3586 21.8648 39.375 22.5 39.375C23.4094 39.375 24.2977 39.3445 25.1695 39.293C26.1381 39.6397 27.1247 39.9339 28.125 40.1742V45.6727C23.5336 44.3906 20.625 42.2789 20.625 40.3125ZM31.875 46.4648V40.875C33.7395 41.1256 35.6187 41.2509 37.5 41.25C39.3809 41.2527 41.2599 41.1321 43.125 40.8891V46.4648C39.3949 47.0117 35.6051 47.0117 31.875 46.4648ZM46.875 45.6727V40.1953C49.9008 39.4617 52.4625 38.3695 54.375 37.0148V40.3125C54.375 42.2789 51.4664 44.3906 46.875 45.6727Z" fill="#02CBEE"/>
</svg>
