<svg width="503" height="125" viewBox="0 0 503 125" fill="none" xmlns="http://www.w3.org/2000/svg">
<path d="M80.078 35.1563C78.0563 35.1554 76.038 35.3187 74.0428 35.6446C73.3332 28.3124 70.3361 21.3888 65.4755 15.8535C60.6149 10.3182 54.1368 6.4513 46.9578 4.79986C46.3131 4.65174 45.6413 4.66978 45.0055 4.8523C44.3696 5.03482 43.7905 5.37583 43.3225 5.84336C42.8545 6.31089 42.5129 6.88961 42.3297 7.52528C42.1465 8.16094 42.1278 8.83271 42.2752 9.47759C42.7363 11.4942 42.9689 13.5564 42.9686 15.6251C42.9608 22.8747 40.0775 29.8252 34.9512 34.9514C29.825 40.0777 22.8745 42.9611 15.6248 42.9688C13.5562 42.9691 11.494 42.7365 9.47738 42.2754C8.83215 42.127 8.15979 42.145 7.52342 42.3277C6.88706 42.5105 6.30759 42.852 5.83943 43.3201C5.37127 43.7883 5.02978 44.3677 4.84704 45.0041C4.66431 45.6405 4.64632 46.3128 4.79476 46.9581C5.84416 51.4831 7.77724 55.7563 10.483 59.5321C13.1887 63.3078 16.6137 66.5118 20.5614 68.96C17.785 72.7423 16.111 77.22 15.7251 81.896C15.3391 86.5721 16.2564 91.2636 18.3751 95.4499C20.4938 99.6362 23.7311 103.154 27.7276 105.612C31.7241 108.07 36.3235 109.372 41.0155 109.375H80.078C89.92 109.375 99.3589 105.465 106.318 98.506C113.278 91.5466 117.187 82.1077 117.187 72.2657C117.187 62.4237 113.278 52.9847 106.318 46.0254C99.3589 39.066 89.92 35.1563 80.078 35.1563ZM14.3407 50.7813C14.7655 50.7813 15.1952 50.7813 15.6248 50.7813C24.9457 50.771 33.8818 47.0637 40.4726 40.4729C47.0635 33.882 50.7708 24.9459 50.7811 15.6251C50.7811 15.1905 50.7811 14.7559 50.7811 14.3213C55.2793 16.4263 59.1142 19.7242 61.8691 23.8565C64.6239 27.9887 66.1931 32.7971 66.4061 37.7588C61.6349 39.6535 57.3069 42.514 53.6938 46.1607C50.0807 49.8075 47.2604 54.1618 45.41 58.9503C42.1074 58.3788 38.7244 58.4669 35.456 59.2094C32.1876 59.9519 29.0985 61.3341 26.367 63.2764C21.1133 60.5204 16.8939 56.1365 14.3407 50.7813ZM80.078 101.563H41.0155C38.6113 101.558 36.2336 101.061 34.0293 100.101C31.8251 99.1407 29.8412 97.7388 28.2003 95.9817C26.5595 94.2245 25.2965 92.1494 24.4895 89.8847C23.6825 87.62 23.3487 85.2139 23.5086 82.815C23.6686 80.4162 24.3189 78.0756 25.4194 75.9381C26.5199 73.8006 28.0472 71.9116 29.9068 70.3878C31.7665 68.864 33.9189 67.7379 36.2311 67.0791C38.5432 66.4204 40.966 66.2429 43.3494 66.5577C43.1688 67.7149 43.0418 68.8965 42.9735 70.0879C42.9139 71.1239 43.2683 72.1412 43.9588 72.9159C44.6492 73.6906 45.6191 74.1592 46.6551 74.2188C47.6911 74.2784 48.7084 73.924 49.483 73.2335C50.2577 72.5431 50.7264 71.5732 50.786 70.5372C50.8956 68.5888 51.2031 66.6566 51.7039 64.7706C51.7039 64.6924 51.7479 64.6143 51.7625 64.5362C53.1983 59.26 56.0805 54.4904 60.0838 50.7658C64.0871 47.0412 69.052 44.51 74.4179 43.458C79.7837 42.4061 85.3368 42.8753 90.4501 44.8126C95.5634 46.7499 100.033 50.0783 103.355 54.4217C106.676 58.7652 108.718 63.9509 109.248 69.3931C109.778 74.8354 108.776 80.3174 106.355 85.2203C103.934 90.1232 100.191 94.2516 95.5474 97.1393C90.9041 100.027 85.546 101.559 80.078 101.563Z" fill="white"/>
<mask id="path-2-outside-1_1_6072" maskUnits="userSpaceOnUse" x="130" y="24" width="369" height="95" fill="black">
<rect fill="white" x="130" y="24" width="369" height="95"/>
<path d="M131.24 95V47.384H142.088L143.048 55.448C144.52 52.632 146.632 50.392 149.384 48.728C152.2 47.064 155.496 46.232 159.272 46.232C165.16 46.232 169.736 48.088 173 51.8C176.264 55.512 177.896 60.952 177.896 68.12V95H165.608V69.272C165.608 65.176 164.776 62.04 163.112 59.864C161.448 57.688 158.856 56.6 155.336 56.6C151.88 56.6 149.032 57.816 146.792 60.248C144.616 62.68 143.528 66.072 143.528 70.424V95H131.24ZM209.806 80.792C207.502 80.792 205.358 80.536 203.374 80.024L199.822 83.576C200.91 84.152 202.382 84.632 204.238 85.016C206.094 85.4 209.102 85.784 213.262 86.168C219.598 86.744 224.206 88.248 227.086 90.68C229.966 93.112 231.406 96.472 231.406 100.76C231.406 103.576 230.638 106.232 229.102 108.728C227.566 111.288 225.198 113.336 221.998 114.872C218.798 116.472 214.702 117.272 209.71 117.272C202.926 117.272 197.454 115.992 193.294 113.432C189.134 110.936 187.054 107.16 187.054 102.104C187.054 97.816 189.134 94.104 193.294 90.968C192.014 90.392 190.894 89.784 189.934 89.144C189.038 88.504 188.238 87.832 187.534 87.128V84.92L195.886 76.088C192.174 72.824 190.318 68.632 190.318 63.512C190.318 60.312 191.086 57.4 192.622 54.776C194.222 52.152 196.462 50.072 199.342 48.536C202.222 47 205.71 46.232 209.806 46.232C212.494 46.232 214.99 46.616 217.294 47.384H235.342V54.872L227.182 55.448C228.462 57.88 229.102 60.568 229.102 63.512C229.102 66.712 228.334 69.624 226.798 72.248C225.262 74.872 223.022 76.952 220.078 78.488C217.198 80.024 213.774 80.792 209.806 80.792ZM209.806 71.384C212.302 71.384 214.35 70.712 215.95 69.368C217.614 68.024 218.446 66.104 218.446 63.608C218.446 61.112 217.614 59.192 215.95 57.848C214.35 56.504 212.302 55.832 209.806 55.832C207.182 55.832 205.07 56.504 203.47 57.848C201.87 59.192 201.07 61.112 201.07 63.608C201.07 66.104 201.87 68.024 203.47 69.368C205.07 70.712 207.182 71.384 209.806 71.384ZM198.286 100.856C198.286 103.224 199.374 104.984 201.55 106.136C203.79 107.352 206.51 107.96 209.71 107.96C212.782 107.96 215.278 107.32 217.198 106.04C219.118 104.824 220.078 103.16 220.078 101.048C220.078 99.32 219.438 97.88 218.158 96.728C216.942 95.576 214.478 94.872 210.766 94.616C208.142 94.424 205.71 94.136 203.47 93.752C201.614 94.776 200.27 95.896 199.438 97.112C198.67 98.328 198.286 99.576 198.286 100.856ZM250.927 39.992C248.687 39.992 246.831 39.32 245.359 37.976C243.951 36.632 243.247 34.936 243.247 32.888C243.247 30.84 243.951 29.176 245.359 27.896C246.831 26.552 248.687 25.88 250.927 25.88C253.167 25.88 254.991 26.552 256.399 27.896C257.871 29.176 258.607 30.84 258.607 32.888C258.607 34.936 257.871 36.632 256.399 37.976C254.991 39.32 253.167 39.992 250.927 39.992ZM244.783 95V47.384H257.071V95H244.783ZM269.896 95V47.384H280.744L281.704 55.448C283.176 52.632 285.288 50.392 288.04 48.728C290.856 47.064 294.152 46.232 297.928 46.232C303.816 46.232 308.392 48.088 311.656 51.8C314.92 55.512 316.552 60.952 316.552 68.12V95H304.264V69.272C304.264 65.176 303.432 62.04 301.768 59.864C300.104 57.688 297.512 56.6 293.992 56.6C290.536 56.6 287.688 57.816 285.448 60.248C283.272 62.68 282.184 66.072 282.184 70.424V95H269.896ZM344.719 96.152C340.623 96.152 337.263 95.512 334.639 94.232C332.015 92.888 330.063 91.128 328.783 88.952C327.503 86.776 326.863 84.376 326.863 81.752C326.863 77.336 328.591 73.752 332.047 71C335.503 68.248 340.687 66.872 347.599 66.872H359.695V65.72C359.695 62.456 358.767 60.056 356.911 58.52C355.055 56.984 352.751 56.216 349.999 56.216C347.503 56.216 345.327 56.824 343.471 58.04C341.615 59.192 340.463 60.92 340.015 63.224H328.015C328.335 59.768 329.487 56.76 331.471 54.2C333.519 51.64 336.143 49.688 339.343 48.344C342.543 46.936 346.127 46.232 350.095 46.232C356.879 46.232 362.223 47.928 366.127 51.32C370.031 54.712 371.983 59.512 371.983 65.72V95H361.519L360.367 87.32C358.959 89.88 356.975 91.992 354.415 93.656C351.919 95.32 348.687 96.152 344.719 96.152ZM347.503 86.552C351.023 86.552 353.743 85.4 355.663 83.096C357.647 80.792 358.895 77.944 359.407 74.552H348.943C345.679 74.552 343.343 75.16 341.935 76.376C340.527 77.528 339.823 78.968 339.823 80.696C339.823 82.552 340.527 83.992 341.935 85.016C343.343 86.04 345.199 86.552 347.503 86.552ZM383.709 116.12V47.384H394.653L395.997 54.2C397.533 52.088 399.549 50.232 402.045 48.632C404.605 47.032 407.901 46.232 411.933 46.232C416.413 46.232 420.413 47.32 423.933 49.496C427.453 51.672 430.237 54.648 432.285 58.424C434.333 62.2 435.357 66.488 435.357 71.288C435.357 76.088 434.333 80.376 432.285 84.152C430.237 87.864 427.453 90.808 423.933 92.984C420.413 95.096 416.413 96.152 411.933 96.152C408.349 96.152 405.213 95.48 402.525 94.136C399.837 92.792 397.661 90.904 395.997 88.472V116.12H383.709ZM409.341 85.4C413.245 85.4 416.477 84.088 419.037 81.464C421.597 78.84 422.877 75.448 422.877 71.288C422.877 67.128 421.597 63.704 419.037 61.016C416.477 58.328 413.245 56.984 409.341 56.984C405.373 56.984 402.109 58.328 399.549 61.016C397.053 63.64 395.805 67.032 395.805 71.192C395.805 75.352 397.053 78.776 399.549 81.464C402.109 84.088 405.373 85.4 409.341 85.4ZM446.334 116.12V47.384H457.278L458.622 54.2C460.158 52.088 462.174 50.232 464.67 48.632C467.23 47.032 470.526 46.232 474.558 46.232C479.038 46.232 483.038 47.32 486.558 49.496C490.078 51.672 492.862 54.648 494.91 58.424C496.958 62.2 497.982 66.488 497.982 71.288C497.982 76.088 496.958 80.376 494.91 84.152C492.862 87.864 490.078 90.808 486.558 92.984C483.038 95.096 479.038 96.152 474.558 96.152C470.974 96.152 467.838 95.48 465.15 94.136C462.462 92.792 460.286 90.904 458.622 88.472V116.12H446.334ZM471.966 85.4C475.87 85.4 479.102 84.088 481.662 81.464C484.222 78.84 485.502 75.448 485.502 71.288C485.502 67.128 484.222 63.704 481.662 61.016C479.102 58.328 475.87 56.984 471.966 56.984C467.998 56.984 464.734 58.328 462.174 61.016C459.678 63.64 458.43 67.032 458.43 71.192C458.43 75.352 459.678 78.776 462.174 81.464C464.734 84.088 467.998 85.4 471.966 85.4Z"/>
</mask>
<path d="M131.24 95V47.384H142.088L143.048 55.448C144.52 52.632 146.632 50.392 149.384 48.728C152.2 47.064 155.496 46.232 159.272 46.232C165.16 46.232 169.736 48.088 173 51.8C176.264 55.512 177.896 60.952 177.896 68.12V95H165.608V69.272C165.608 65.176 164.776 62.04 163.112 59.864C161.448 57.688 158.856 56.6 155.336 56.6C151.88 56.6 149.032 57.816 146.792 60.248C144.616 62.68 143.528 66.072 143.528 70.424V95H131.24ZM209.806 80.792C207.502 80.792 205.358 80.536 203.374 80.024L199.822 83.576C200.91 84.152 202.382 84.632 204.238 85.016C206.094 85.4 209.102 85.784 213.262 86.168C219.598 86.744 224.206 88.248 227.086 90.68C229.966 93.112 231.406 96.472 231.406 100.76C231.406 103.576 230.638 106.232 229.102 108.728C227.566 111.288 225.198 113.336 221.998 114.872C218.798 116.472 214.702 117.272 209.71 117.272C202.926 117.272 197.454 115.992 193.294 113.432C189.134 110.936 187.054 107.16 187.054 102.104C187.054 97.816 189.134 94.104 193.294 90.968C192.014 90.392 190.894 89.784 189.934 89.144C189.038 88.504 188.238 87.832 187.534 87.128V84.92L195.886 76.088C192.174 72.824 190.318 68.632 190.318 63.512C190.318 60.312 191.086 57.4 192.622 54.776C194.222 52.152 196.462 50.072 199.342 48.536C202.222 47 205.71 46.232 209.806 46.232C212.494 46.232 214.99 46.616 217.294 47.384H235.342V54.872L227.182 55.448C228.462 57.88 229.102 60.568 229.102 63.512C229.102 66.712 228.334 69.624 226.798 72.248C225.262 74.872 223.022 76.952 220.078 78.488C217.198 80.024 213.774 80.792 209.806 80.792ZM209.806 71.384C212.302 71.384 214.35 70.712 215.95 69.368C217.614 68.024 218.446 66.104 218.446 63.608C218.446 61.112 217.614 59.192 215.95 57.848C214.35 56.504 212.302 55.832 209.806 55.832C207.182 55.832 205.07 56.504 203.47 57.848C201.87 59.192 201.07 61.112 201.07 63.608C201.07 66.104 201.87 68.024 203.47 69.368C205.07 70.712 207.182 71.384 209.806 71.384ZM198.286 100.856C198.286 103.224 199.374 104.984 201.55 106.136C203.79 107.352 206.51 107.96 209.71 107.96C212.782 107.96 215.278 107.32 217.198 106.04C219.118 104.824 220.078 103.16 220.078 101.048C220.078 99.32 219.438 97.88 218.158 96.728C216.942 95.576 214.478 94.872 210.766 94.616C208.142 94.424 205.71 94.136 203.47 93.752C201.614 94.776 200.27 95.896 199.438 97.112C198.67 98.328 198.286 99.576 198.286 100.856ZM250.927 39.992C248.687 39.992 246.831 39.32 245.359 37.976C243.951 36.632 243.247 34.936 243.247 32.888C243.247 30.84 243.951 29.176 245.359 27.896C246.831 26.552 248.687 25.88 250.927 25.88C253.167 25.88 254.991 26.552 256.399 27.896C257.871 29.176 258.607 30.84 258.607 32.888C258.607 34.936 257.871 36.632 256.399 37.976C254.991 39.32 253.167 39.992 250.927 39.992ZM244.783 95V47.384H257.071V95H244.783ZM269.896 95V47.384H280.744L281.704 55.448C283.176 52.632 285.288 50.392 288.04 48.728C290.856 47.064 294.152 46.232 297.928 46.232C303.816 46.232 308.392 48.088 311.656 51.8C314.92 55.512 316.552 60.952 316.552 68.12V95H304.264V69.272C304.264 65.176 303.432 62.04 301.768 59.864C300.104 57.688 297.512 56.6 293.992 56.6C290.536 56.6 287.688 57.816 285.448 60.248C283.272 62.68 282.184 66.072 282.184 70.424V95H269.896ZM344.719 96.152C340.623 96.152 337.263 95.512 334.639 94.232C332.015 92.888 330.063 91.128 328.783 88.952C327.503 86.776 326.863 84.376 326.863 81.752C326.863 77.336 328.591 73.752 332.047 71C335.503 68.248 340.687 66.872 347.599 66.872H359.695V65.72C359.695 62.456 358.767 60.056 356.911 58.52C355.055 56.984 352.751 56.216 349.999 56.216C347.503 56.216 345.327 56.824 343.471 58.04C341.615 59.192 340.463 60.92 340.015 63.224H328.015C328.335 59.768 329.487 56.76 331.471 54.2C333.519 51.64 336.143 49.688 339.343 48.344C342.543 46.936 346.127 46.232 350.095 46.232C356.879 46.232 362.223 47.928 366.127 51.32C370.031 54.712 371.983 59.512 371.983 65.72V95H361.519L360.367 87.32C358.959 89.88 356.975 91.992 354.415 93.656C351.919 95.32 348.687 96.152 344.719 96.152ZM347.503 86.552C351.023 86.552 353.743 85.4 355.663 83.096C357.647 80.792 358.895 77.944 359.407 74.552H348.943C345.679 74.552 343.343 75.16 341.935 76.376C340.527 77.528 339.823 78.968 339.823 80.696C339.823 82.552 340.527 83.992 341.935 85.016C343.343 86.04 345.199 86.552 347.503 86.552ZM383.709 116.12V47.384H394.653L395.997 54.2C397.533 52.088 399.549 50.232 402.045 48.632C404.605 47.032 407.901 46.232 411.933 46.232C416.413 46.232 420.413 47.32 423.933 49.496C427.453 51.672 430.237 54.648 432.285 58.424C434.333 62.2 435.357 66.488 435.357 71.288C435.357 76.088 434.333 80.376 432.285 84.152C430.237 87.864 427.453 90.808 423.933 92.984C420.413 95.096 416.413 96.152 411.933 96.152C408.349 96.152 405.213 95.48 402.525 94.136C399.837 92.792 397.661 90.904 395.997 88.472V116.12H383.709ZM409.341 85.4C413.245 85.4 416.477 84.088 419.037 81.464C421.597 78.84 422.877 75.448 422.877 71.288C422.877 67.128 421.597 63.704 419.037 61.016C416.477 58.328 413.245 56.984 409.341 56.984C405.373 56.984 402.109 58.328 399.549 61.016C397.053 63.64 395.805 67.032 395.805 71.192C395.805 75.352 397.053 78.776 399.549 81.464C402.109 84.088 405.373 85.4 409.341 85.4ZM446.334 116.12V47.384H457.278L458.622 54.2C460.158 52.088 462.174 50.232 464.67 48.632C467.23 47.032 470.526 46.232 474.558 46.232C479.038 46.232 483.038 47.32 486.558 49.496C490.078 51.672 492.862 54.648 494.91 58.424C496.958 62.2 497.982 66.488 497.982 71.288C497.982 76.088 496.958 80.376 494.91 84.152C492.862 87.864 490.078 90.808 486.558 92.984C483.038 95.096 479.038 96.152 474.558 96.152C470.974 96.152 467.838 95.48 465.15 94.136C462.462 92.792 460.286 90.904 458.622 88.472V116.12H446.334ZM471.966 85.4C475.87 85.4 479.102 84.088 481.662 81.464C484.222 78.84 485.502 75.448 485.502 71.288C485.502 67.128 484.222 63.704 481.662 61.016C479.102 58.328 475.87 56.984 471.966 56.984C467.998 56.984 464.734 58.328 462.174 61.016C459.678 63.64 458.43 67.032 458.43 71.192C458.43 75.352 459.678 78.776 462.174 81.464C464.734 84.088 467.998 85.4 471.966 85.4Z" fill="white"/>
<path d="M131.24 95H130.24V96H131.24V95ZM131.24 47.384V46.384H130.24V47.384H131.24ZM142.088 47.384L143.081 47.2658L142.976 46.384H142.088V47.384ZM143.048 55.448L142.055 55.5662L142.437 58.7754L143.934 55.9113L143.048 55.448ZM149.384 48.728L148.875 47.867L148.867 47.8723L149.384 48.728ZM173 51.8L172.249 52.4603L173 51.8ZM177.896 95V96H178.896V95H177.896ZM165.608 95H164.608V96H165.608V95ZM163.112 59.864L163.906 59.2565L163.112 59.864ZM146.792 60.248L146.056 59.5705L146.052 59.5758L146.047 59.5812L146.792 60.248ZM143.528 95V96H144.528V95H143.528ZM132.24 95V47.384H130.24V95H132.24ZM131.24 48.384H142.088V46.384H131.24V48.384ZM141.095 47.5022L142.055 55.5662L144.041 55.3298L143.081 47.2658L141.095 47.5022ZM143.934 55.9113C145.32 53.2594 147.304 51.1543 149.901 49.5837L148.867 47.8723C145.96 49.6297 143.72 52.0046 142.162 54.9847L143.934 55.9113ZM149.893 49.5889C152.532 48.0293 155.647 47.232 159.272 47.232V45.232C155.345 45.232 151.868 46.0987 148.875 47.8671L149.893 49.5889ZM159.272 47.232C164.933 47.232 169.211 49.0057 172.249 52.4603L173.751 51.1397C170.261 47.1703 165.387 45.232 159.272 45.232V47.232ZM172.249 52.4603C175.293 55.9226 176.896 61.0875 176.896 68.12H178.896C178.896 60.8165 177.235 55.1014 173.751 51.1397L172.249 52.4603ZM176.896 68.12V95H178.896V68.12H176.896ZM177.896 94H165.608V96H177.896V94ZM166.608 95V69.272H164.608V95H166.608ZM166.608 69.272C166.608 65.0602 165.755 61.6745 163.906 59.2565L162.318 60.4714C163.797 62.4055 164.608 65.2918 164.608 69.272H166.608ZM163.906 59.2565C162.001 56.765 159.07 55.6 155.336 55.6V57.6C158.642 57.6 160.895 58.611 162.318 60.4714L163.906 59.2565ZM155.336 55.6C151.615 55.6 148.495 56.9227 146.056 59.5705L147.528 60.9255C149.569 58.7093 152.145 57.6 155.336 57.6V55.6ZM146.047 59.5812C143.659 62.2504 142.528 65.9094 142.528 70.424H144.528C144.528 66.2346 145.573 63.1096 147.537 60.9148L146.047 59.5812ZM142.528 70.424V95H144.528V70.424H142.528ZM143.528 94H131.24V96H143.528V94ZM203.374 80.024L203.624 79.0557L203.071 78.913L202.667 79.3169L203.374 80.024ZM199.822 83.576L199.115 82.8689L198.158 83.8263L199.354 84.4598L199.822 83.576ZM204.238 85.016L204.036 85.9953L204.238 85.016ZM213.262 86.168L213.17 87.1638L213.172 87.1639L213.262 86.168ZM227.086 90.68L226.441 91.444L227.086 90.68ZM229.102 108.728L228.251 108.204L228.245 108.214L229.102 108.728ZM221.998 114.872L221.566 113.97L221.558 113.974L221.551 113.978L221.998 114.872ZM193.294 113.432L193.818 112.58L193.809 112.575L193.294 113.432ZM193.294 90.968L193.896 91.7665L195.245 90.7494L193.705 90.0561L193.294 90.968ZM189.934 89.144L189.353 89.9577L189.366 89.9671L189.38 89.9761L189.934 89.144ZM187.534 87.128H186.534V87.5422L186.827 87.8351L187.534 87.128ZM187.534 84.92L186.808 84.2329L186.534 84.522V84.92H187.534ZM195.886 76.088L196.613 76.7751L197.325 76.0217L196.547 75.337L195.886 76.088ZM192.622 54.776L191.768 54.2554L191.764 54.2631L191.759 54.2708L192.622 54.776ZM199.342 48.536L198.872 47.6536L199.342 48.536ZM217.294 47.384L216.978 48.3327L217.132 48.384H217.294V47.384ZM235.342 47.384H236.342V46.384H235.342V47.384ZM235.342 54.872L235.413 55.8695L236.342 55.8039V54.872H235.342ZM227.182 55.448L227.112 54.4505L225.584 54.5583L226.297 55.9137L227.182 55.448ZM220.078 78.488L219.616 77.6014L219.608 77.6056L220.078 78.488ZM215.95 69.368L215.322 68.5901L215.314 68.5961L215.307 68.6023L215.95 69.368ZM215.95 57.848L215.307 58.6137L215.314 58.6199L215.322 58.6259L215.95 57.848ZM203.47 57.848L202.827 57.0823L203.47 57.848ZM203.47 69.368L204.113 68.6023L203.47 69.368ZM201.55 106.136L202.027 105.257L202.018 105.252L201.55 106.136ZM217.198 106.04L216.663 105.195L216.653 105.201L216.644 105.208L217.198 106.04ZM218.158 96.728L217.471 97.4539L217.48 97.4627L217.489 97.4713L218.158 96.728ZM210.766 94.616L210.693 95.6133L210.697 95.6136L210.766 94.616ZM203.47 93.752L203.639 92.7664L203.294 92.7072L202.987 92.8764L203.47 93.752ZM199.438 97.112L198.613 96.5473L198.603 96.5625L198.593 96.578L199.438 97.112ZM209.806 79.792C207.576 79.792 205.517 79.5442 203.624 79.0557L203.124 80.9923C205.199 81.5278 207.428 81.792 209.806 81.792V79.792ZM202.667 79.3169L199.115 82.8689L200.529 84.2831L204.081 80.7311L202.667 79.3169ZM199.354 84.4598C200.558 85.097 202.131 85.6012 204.036 85.9953L204.441 84.0367C202.633 83.6628 201.262 83.207 200.29 82.6922L199.354 84.4598ZM204.036 85.9953C205.951 86.3914 209.006 86.7794 213.17 87.1638L213.354 85.1722C209.198 84.7886 206.238 84.4085 204.441 84.0367L204.036 85.9953ZM213.172 87.1639C219.43 87.7328 223.793 89.2076 226.441 91.444L227.731 89.916C224.62 87.2884 219.767 85.7552 213.353 85.1721L213.172 87.1639ZM226.441 91.444C229.064 93.6586 230.406 96.7212 230.406 100.76H232.406C232.406 96.2228 230.869 92.5654 227.731 89.916L226.441 91.444ZM230.406 100.76C230.406 103.383 229.694 105.859 228.251 108.204L229.954 109.252C231.583 106.605 232.406 103.769 232.406 100.76H230.406ZM228.245 108.214C226.827 110.576 224.623 112.503 221.566 113.97L222.431 115.774C225.773 114.169 228.305 112 229.96 109.242L228.245 108.214ZM221.551 113.978C218.534 115.486 214.605 116.272 209.71 116.272V118.272C214.8 118.272 219.063 117.458 222.445 115.766L221.551 113.978ZM209.71 116.272C203.042 116.272 197.771 115.013 193.818 112.58L192.77 114.284C197.138 116.971 202.81 118.272 209.71 118.272V116.272ZM193.809 112.575C189.965 110.268 188.054 106.827 188.054 102.104H186.054C186.054 107.493 188.303 111.604 192.78 114.289L193.809 112.575ZM188.054 102.104C188.054 98.1984 189.927 94.759 193.896 91.7665L192.692 90.1695C188.342 93.449 186.054 97.4336 186.054 102.104H188.054ZM193.705 90.0561C192.465 89.498 191.395 88.9157 190.489 88.312L189.38 89.9761C190.394 90.6523 191.564 91.286 192.884 91.8799L193.705 90.0561ZM190.515 88.3303C189.66 87.719 188.903 87.0821 188.241 86.4209L186.827 87.8351C187.574 88.5819 188.417 89.289 189.353 89.9577L190.515 88.3303ZM188.534 87.128V84.92H186.534V87.128H188.534ZM188.261 85.6071L196.613 76.7751L195.16 75.4009L186.808 84.2329L188.261 85.6071ZM196.547 75.337C193.059 72.2705 191.318 68.3562 191.318 63.512H189.318C189.318 68.9078 191.289 73.3775 195.226 76.839L196.547 75.337ZM191.318 63.512C191.318 60.4799 192.044 57.7438 193.485 55.2812L191.759 54.2708C190.129 57.0562 189.318 60.1441 189.318 63.512H191.318ZM193.476 55.2966C194.977 52.8348 197.08 50.8756 199.813 49.4184L198.872 47.6536C195.844 49.2684 193.467 51.4692 191.768 54.2554L193.476 55.2966ZM199.813 49.4184C202.516 47.9768 205.833 47.232 209.806 47.232V45.232C205.587 45.232 201.929 46.0232 198.872 47.6536L199.813 49.4184ZM209.806 47.232C212.398 47.232 214.786 47.6021 216.978 48.3327L217.61 46.4353C215.194 45.6299 212.59 45.232 209.806 45.232V47.232ZM217.294 48.384H235.342V46.384H217.294V48.384ZM234.342 47.384V54.872H236.342V47.384H234.342ZM235.272 53.8745L227.112 54.4505L227.253 56.4455L235.413 55.8695L235.272 53.8745ZM226.297 55.9137C227.496 58.192 228.102 60.7184 228.102 63.512H230.102C230.102 60.4176 229.428 57.568 228.067 54.9823L226.297 55.9137ZM228.102 63.512C228.102 66.5441 227.377 69.2802 225.935 71.7428L227.661 72.7532C229.292 69.9678 230.102 66.8799 230.102 63.512H228.102ZM225.935 71.7428C224.503 74.1897 222.409 76.1441 219.616 77.6014L220.541 79.3746C223.636 77.7599 226.022 75.5543 227.661 72.7532L225.935 71.7428ZM219.608 77.6056C216.901 79.0494 213.645 79.792 209.806 79.792V81.792C213.903 81.792 217.496 80.9986 220.549 79.3704L219.608 77.6056ZM209.806 72.384C212.49 72.384 214.78 71.6572 216.593 70.1337L215.307 68.6023C213.921 69.7668 212.115 70.384 209.806 70.384V72.384ZM216.579 70.1459C218.518 68.5793 219.446 66.3497 219.446 63.608H217.446C217.446 65.8583 216.71 67.4687 215.322 68.5901L216.579 70.1459ZM219.446 63.608C219.446 60.8663 218.518 58.6367 216.579 57.0701L215.322 58.6259C216.71 59.7473 217.446 61.3577 217.446 63.608H219.446ZM216.593 57.0823C214.78 55.5588 212.49 54.832 209.806 54.832V56.832C212.115 56.832 213.921 57.4492 215.307 58.6137L216.593 57.0823ZM209.806 54.832C207.009 54.832 204.65 55.5514 202.827 57.0823L204.113 58.6137C205.491 57.4566 207.356 56.832 209.806 56.832V54.832ZM202.827 57.0823C200.956 58.6536 200.07 60.88 200.07 63.608H202.07C202.07 61.344 202.784 59.7304 204.113 58.6137L202.827 57.0823ZM200.07 63.608C200.07 66.336 200.956 68.5624 202.827 70.1337L204.113 68.6023C202.784 67.4856 202.07 65.872 202.07 63.608H200.07ZM202.827 70.1337C204.65 71.6646 207.009 72.384 209.806 72.384V70.384C207.356 70.384 205.491 69.7594 204.113 68.6023L202.827 70.1337ZM197.286 100.856C197.286 102.198 197.597 103.418 198.252 104.478C198.905 105.536 199.867 106.376 201.082 107.02L202.018 105.252C201.057 104.744 200.387 104.128 199.953 103.426C199.52 102.726 199.286 101.882 199.286 100.856H197.286ZM201.073 107.015C203.492 108.328 206.385 108.96 209.71 108.96V106.96C206.635 106.96 204.088 106.376 202.027 105.257L201.073 107.015ZM209.71 108.96C212.916 108.96 215.622 108.292 217.753 106.872L216.644 105.208C214.934 106.348 212.649 106.96 209.71 106.96V108.96ZM217.733 106.885C219.916 105.502 221.078 103.533 221.078 101.048H219.078C219.078 102.787 218.32 104.146 216.663 105.195L217.733 106.885ZM221.078 101.048C221.078 99.0376 220.319 97.3271 218.827 95.9847L217.489 97.4713C218.558 98.4329 219.078 99.6024 219.078 101.048H221.078ZM218.846 96.002C218.076 95.2722 216.985 94.7493 215.673 94.3745C214.351 93.9968 212.732 93.7492 210.835 93.6184L210.697 95.6136C212.512 95.7388 213.981 95.9712 215.124 96.2975C216.276 96.6267 217.025 97.0318 217.471 97.4539L218.846 96.002ZM210.839 93.6187C208.243 93.4287 205.843 93.1442 203.639 92.7664L203.301 94.7376C205.578 95.1278 208.042 95.4193 210.693 95.6133L210.839 93.6187ZM202.987 92.8764C201.05 93.9451 199.563 95.1584 198.613 96.5473L200.264 97.6767C200.977 96.6336 202.178 95.6069 203.953 94.6276L202.987 92.8764ZM198.593 96.578C197.737 97.9335 197.286 99.3643 197.286 100.856H199.286C199.286 99.7877 199.604 98.7225 200.284 97.646L198.593 96.578ZM245.358 37.976L244.668 38.6994L244.676 38.707L244.684 38.7145L245.358 37.976ZM245.358 27.896L246.031 28.6359L246.033 28.6345L245.358 27.896ZM256.398 27.896L255.708 28.6194L255.725 28.6354L255.742 28.6506L256.398 27.896ZM256.398 37.976L255.724 37.2375L255.716 37.245L255.708 37.2526L256.398 37.976ZM244.783 95H243.783V96H244.783V95ZM244.783 47.384V46.384H243.783V47.384H244.783ZM257.07 47.384H258.07V46.384H257.07V47.384ZM257.07 95V96H258.07V95H257.07ZM250.926 38.992C248.903 38.992 247.297 38.3921 246.033 37.2375L244.684 38.7145C246.364 40.2479 248.47 40.992 250.926 40.992V38.992ZM246.049 37.2526C244.85 36.1081 244.246 34.6787 244.246 32.888H242.246C242.246 35.1933 243.051 37.1559 244.668 38.6994L246.049 37.2526ZM244.246 32.888C244.246 31.0976 244.849 29.7108 246.031 28.6359L244.686 27.1561C243.052 28.6412 242.246 30.5824 242.246 32.888H244.246ZM246.033 28.6345C247.297 27.4799 248.903 26.88 250.926 26.88V24.88C248.47 24.88 246.364 25.6241 244.684 27.1575L246.033 28.6345ZM250.926 26.88C252.951 26.88 254.514 27.4798 255.708 28.6194L257.089 27.1726C255.467 25.6242 253.382 24.88 250.926 24.88V26.88ZM255.742 28.6506C256.984 29.7301 257.607 31.113 257.607 32.888H259.607C259.607 30.567 258.757 28.6218 257.055 27.1414L255.742 28.6506ZM257.607 32.888C257.607 34.6638 256.982 36.0888 255.724 37.2375L257.073 38.7145C258.759 37.1752 259.607 35.2082 259.607 32.888H257.607ZM255.708 37.2526C254.514 38.3922 252.951 38.992 250.926 38.992V40.992C253.382 40.992 255.467 40.2478 257.089 38.6994L255.708 37.2526ZM245.783 95V47.384H243.783V95H245.783ZM244.783 48.384H257.07V46.384H244.783V48.384ZM256.07 47.384V95H258.07V47.384H256.07ZM257.07 94H244.783V96H257.07V94ZM269.896 95H268.896V96H269.896V95ZM269.896 47.384V46.384H268.896V47.384H269.896ZM280.744 47.384L281.737 47.2658L281.632 46.384H280.744V47.384ZM281.704 55.448L280.711 55.5662L281.093 58.7754L282.59 55.9113L281.704 55.448ZM288.04 48.728L287.531 47.867L287.523 47.8723L288.04 48.728ZM311.656 51.8L310.905 52.4603L311.656 51.8ZM316.552 95V96H317.552V95H316.552ZM304.264 95H303.264V96H304.264V95ZM301.768 59.864L302.563 59.2565L301.768 59.864ZM285.448 60.248L284.713 59.5705L284.708 59.5758L284.703 59.5812L285.448 60.248ZM282.184 95V96H283.184V95H282.184ZM270.896 95V47.384H268.896V95H270.896ZM269.896 48.384H280.744V46.384H269.896V48.384ZM279.751 47.5022L280.711 55.5662L282.697 55.3298L281.737 47.2658L279.751 47.5022ZM282.59 55.9113C283.977 53.2594 285.96 51.1543 288.558 49.5837L287.523 47.8723C284.616 49.6297 282.376 52.0046 280.818 54.9847L282.59 55.9113ZM288.549 49.5889C291.188 48.0293 294.303 47.232 297.928 47.232V45.232C294.001 45.232 290.524 46.0987 287.532 47.8671L288.549 49.5889ZM297.928 47.232C303.589 47.232 307.868 49.0057 310.905 52.4603L312.407 51.1397C308.917 47.1703 304.044 45.232 297.928 45.232V47.232ZM310.905 52.4603C313.95 55.9226 315.552 61.0875 315.552 68.12H317.552C317.552 60.8165 315.891 55.1014 312.407 51.1397L310.905 52.4603ZM315.552 68.12V95H317.552V68.12H315.552ZM316.552 94H304.264V96H316.552V94ZM305.264 95V69.272H303.264V95H305.264ZM305.264 69.272C305.264 65.0602 304.412 61.6745 302.563 59.2565L300.974 60.4714C302.453 62.4055 303.264 65.2918 303.264 69.272H305.264ZM302.563 59.2565C300.657 56.765 297.727 55.6 293.992 55.6V57.6C297.298 57.6 299.551 58.611 300.974 60.4714L302.563 59.2565ZM293.992 55.6C290.271 55.6 287.152 56.9227 284.713 59.5705L286.184 60.9255C288.225 58.7093 290.801 57.6 293.992 57.6V55.6ZM284.703 59.5812C282.315 62.2504 281.184 65.9094 281.184 70.424H283.184C283.184 66.2346 284.23 63.1096 286.193 60.9148L284.703 59.5812ZM281.184 70.424V95H283.184V70.424H281.184ZM282.184 94H269.896V96H282.184V94ZM334.639 94.232L334.183 95.122L334.191 95.1265L334.2 95.1308L334.639 94.232ZM328.783 88.952L327.921 89.459L328.783 88.952ZM332.046 71L332.669 71.7823L332.046 71ZM359.695 66.872V67.872H360.695V66.872H359.695ZM356.911 58.52L357.548 57.7496L356.911 58.52ZM343.471 58.04L343.998 58.8896L344.008 58.8832L344.019 58.8765L343.471 58.04ZM340.014 63.224V64.224H340.839L340.996 63.4149L340.014 63.224ZM328.014 63.224L327.019 63.1318L326.918 64.224H328.014V63.224ZM331.471 54.2L330.69 53.5753L330.685 53.5813L330.68 53.5874L331.471 54.2ZM339.342 48.344L339.73 49.266L339.738 49.2627L339.745 49.2593L339.342 48.344ZM366.126 51.32L365.471 52.0749L366.126 51.32ZM371.982 95V96H372.982V95H371.982ZM361.518 95L360.53 95.1483L360.657 96H361.518V95ZM360.367 87.32L361.355 87.1717L360.916 84.2451L359.49 86.8381L360.367 87.32ZM354.415 93.656L353.869 92.8175L353.86 92.824L354.415 93.656ZM355.663 83.096L354.905 82.4435L354.899 82.4496L354.894 82.4558L355.663 83.096ZM359.407 74.552L360.395 74.7012L360.569 73.552H359.407V74.552ZM341.935 76.376L342.568 77.15L342.578 77.1415L342.588 77.1328L341.935 76.376ZM341.935 85.016L342.523 84.2073L341.935 85.016ZM344.719 95.152C340.717 95.152 337.521 94.5254 335.077 93.3332L334.2 95.1308C337.004 96.4986 340.528 97.152 344.719 97.152V95.152ZM335.094 93.342C332.61 92.0697 330.813 90.4315 329.644 88.445L327.921 89.459C329.312 91.8245 331.419 93.7063 334.183 95.122L335.094 93.342ZM329.644 88.445C328.458 86.4289 327.863 84.205 327.863 81.752H325.863C325.863 84.547 326.547 87.1231 327.921 89.459L329.644 88.445ZM327.863 81.752C327.863 77.6407 329.452 74.3446 332.669 71.7823L331.424 70.2177C327.729 73.1594 325.863 77.0313 325.863 81.752H327.863ZM332.669 71.7823C335.873 69.2313 340.793 67.872 347.598 67.872V65.872C340.58 65.872 335.132 67.2647 331.424 70.2177L332.669 71.7823ZM347.598 67.872H359.695V65.872H347.598V67.872ZM360.695 66.872V65.72H358.695V66.872H360.695ZM360.695 65.72C360.695 62.2701 359.708 59.537 357.548 57.7496L356.273 59.2904C357.825 60.575 358.695 62.6419 358.695 65.72H360.695ZM357.548 57.7496C355.488 56.0443 352.948 55.216 349.999 55.216V57.216C352.553 57.216 354.622 57.9237 356.273 59.2904L357.548 57.7496ZM349.999 55.216C347.333 55.216 344.961 55.8679 342.922 57.2035L344.019 58.8765C345.692 57.7801 347.672 57.216 349.999 57.216V55.216ZM342.943 57.1904C340.832 58.501 339.53 60.4787 339.033 63.0331L340.996 63.4149C341.395 61.3613 342.397 59.883 343.998 58.8896L342.943 57.1904ZM340.014 62.224H328.014V64.224H340.014V62.224ZM329.01 63.3162C329.314 60.0355 330.402 57.2113 332.261 54.8126L330.68 53.5874C328.571 56.3087 327.355 59.5005 327.019 63.1318L329.01 63.3162ZM332.251 54.8247C334.189 52.4028 336.674 50.5492 339.73 49.266L338.955 47.422C335.611 48.8268 332.848 50.8772 330.69 53.5753L332.251 54.8247ZM339.745 49.2593C342.802 47.9142 346.246 47.232 350.094 47.232V45.232C346.007 45.232 342.283 45.9578 338.94 47.4287L339.745 49.2593ZM350.094 47.232C356.714 47.232 361.799 48.8848 365.471 52.0749L366.782 50.5651C362.646 46.9712 357.043 45.232 350.094 45.232V47.232ZM365.471 52.0749C369.112 55.2389 370.982 59.738 370.982 65.72H372.982C372.982 59.286 370.949 54.1851 366.782 50.5651L365.471 52.0749ZM370.982 65.72V95H372.982V65.72H370.982ZM371.982 94H361.518V96H371.982V94ZM362.507 94.8517L361.355 87.1717L359.378 87.4683L360.53 95.1483L362.507 94.8517ZM359.49 86.8381C358.165 89.2472 356.298 91.2391 353.87 92.8176L354.959 94.4944C357.651 92.7449 359.752 90.5128 361.243 87.8019L359.49 86.8381ZM353.86 92.824C351.573 94.3482 348.552 95.152 344.719 95.152V97.152C348.821 97.152 352.264 96.2918 354.969 94.4881L353.86 92.824ZM347.503 87.552C351.262 87.552 354.287 86.3088 356.431 83.7362L354.894 82.4558C353.198 84.4912 350.783 85.552 347.503 85.552V87.552ZM356.42 83.7485C358.542 81.2842 359.859 78.2549 360.395 74.7012L358.418 74.4027C357.93 77.6331 356.751 80.2998 354.905 82.4435L356.42 83.7485ZM359.407 73.552H348.943V75.552H359.407V73.552ZM348.943 73.552C345.602 73.552 342.965 74.1649 341.281 75.6192L342.588 77.1328C343.72 76.1551 345.755 75.552 348.943 75.552V73.552ZM341.301 75.602C339.675 76.9324 338.822 78.6503 338.822 80.696H340.822C340.822 79.2857 341.378 78.1236 342.568 77.15L341.301 75.602ZM338.822 80.696C338.822 82.8472 339.66 84.5985 341.346 85.8247L342.523 84.2073C341.393 83.3855 340.822 82.2568 340.822 80.696H338.822ZM341.346 85.8247C342.973 87.0077 345.055 87.552 347.503 87.552V85.552C345.342 85.552 343.712 85.0723 342.523 84.2073L341.346 85.8247ZM383.709 116.12H382.709V117.12H383.709V116.12ZM383.709 47.384V46.384H382.709V47.384H383.709ZM394.653 47.384L395.634 47.1905L395.475 46.384H394.653V47.384ZM395.997 54.2L395.016 54.3935L395.459 56.6401L396.805 54.7882L395.997 54.2ZM402.045 48.632L401.515 47.7839L401.505 47.7901L402.045 48.632ZM423.933 49.496L424.459 48.6454L423.933 49.496ZM432.285 58.424L431.406 58.9008L432.285 58.424ZM432.285 84.152L433.16 84.6351L433.164 84.6288L432.285 84.152ZM423.933 92.984L424.447 93.8416L424.459 93.8346L423.933 92.984ZM395.997 88.472L396.822 87.9073L394.997 85.2396V88.472H395.997ZM395.997 116.12V117.12H396.997V116.12H395.997ZM419.037 81.464L419.753 82.1623L419.037 81.464ZM419.037 61.016L419.761 60.3263L419.037 61.016ZM399.549 61.016L398.825 60.3263L398.824 60.3268L399.549 61.016ZM399.549 81.464L398.816 82.1444L398.824 82.1535L398.833 82.1623L399.549 81.464ZM384.709 116.12V47.384H382.709V116.12H384.709ZM383.709 48.384H394.653V46.384H383.709V48.384ZM393.672 47.5775L395.016 54.3935L396.978 54.0065L395.634 47.1905L393.672 47.5775ZM396.805 54.7882C398.259 52.7894 400.179 51.0158 402.584 49.4739L401.505 47.7901C398.918 49.4482 396.806 51.3866 395.188 53.6118L396.805 54.7882ZM402.575 49.48C404.931 48.0074 408.027 47.232 411.933 47.232V45.232C407.775 45.232 404.279 46.0566 401.515 47.784L402.575 49.48ZM411.933 47.232C416.243 47.232 420.058 48.2763 423.407 50.3466L424.459 48.6454C420.768 46.3637 416.583 45.232 411.933 45.232V47.232ZM423.407 50.3466C426.773 52.4273 429.438 55.272 431.406 58.9008L433.164 57.9472C431.036 54.024 428.133 50.9167 424.459 48.6454L423.407 50.3466ZM431.406 58.9008C433.365 62.5139 434.357 66.6346 434.357 71.288H436.357C436.357 66.3414 435.3 61.8861 433.164 57.9472L431.406 58.9008ZM434.357 71.288C434.357 75.9414 433.365 80.0621 431.406 83.6752L433.164 84.6288C435.3 80.6898 436.357 76.2346 436.357 71.288H434.357ZM431.409 83.6689C429.442 87.2342 426.777 90.0501 423.407 92.1334L424.459 93.8346C428.129 91.5659 431.031 88.4938 433.16 84.6351L431.409 83.6689ZM423.418 92.1265C420.068 94.1368 416.249 95.152 411.933 95.152V97.152C416.577 97.152 420.758 96.0552 424.447 93.8415L423.418 92.1265ZM411.933 95.152C408.474 95.152 405.497 94.504 402.972 93.2416L402.078 95.0304C404.929 96.456 408.223 97.152 411.933 97.152V95.152ZM402.972 93.2416C400.433 91.972 398.388 90.1962 396.822 87.9073L395.171 89.0367C396.933 91.6118 399.241 93.612 402.078 95.0304L402.972 93.2416ZM394.997 88.472V116.12H396.997V88.472H394.997ZM395.997 115.12H383.709V117.12H395.997V115.12ZM409.341 86.4C413.495 86.4 416.991 84.9927 419.753 82.1623L418.321 80.7657C415.962 83.1833 412.995 84.4 409.341 84.4V86.4ZM419.753 82.1623C422.52 79.3259 423.877 75.6708 423.877 71.288H421.877C421.877 75.2252 420.674 78.3541 418.321 80.7657L419.753 82.1623ZM423.877 71.288C423.877 66.9048 422.52 63.2233 419.761 60.3263L418.313 61.7057C420.674 64.1847 421.877 67.3512 421.877 71.288H423.877ZM419.761 60.3263C417.001 57.429 413.503 55.984 409.341 55.984V57.984C412.987 57.984 415.952 59.227 418.313 61.7057L419.761 60.3263ZM409.341 55.984C405.12 55.984 401.587 57.4254 398.825 60.3263L400.273 61.7057C402.63 59.2306 405.625 57.984 409.341 57.984V55.984ZM398.824 60.3268C396.125 63.1644 394.805 66.8165 394.805 71.192H396.805C396.805 67.2475 397.981 64.1155 400.273 61.7052L398.824 60.3268ZM394.805 71.192C394.805 75.568 396.125 79.2464 398.816 82.1444L400.282 80.7835C397.981 78.3056 396.805 75.136 396.805 71.192H394.805ZM398.833 82.1623C401.598 84.9962 405.128 86.4 409.341 86.4V84.4C405.618 84.4 402.62 83.1798 400.265 80.7657L398.833 82.1623ZM446.334 116.12H445.334V117.12H446.334V116.12ZM446.334 47.384V46.384H445.334V47.384H446.334ZM457.278 47.384L458.259 47.1905L458.1 46.384H457.278V47.384ZM458.622 54.2L457.641 54.3935L458.084 56.6401L459.43 54.7882L458.622 54.2ZM464.67 48.632L464.14 47.7839L464.13 47.7901L464.67 48.632ZM486.558 49.496L487.084 48.6454L486.558 49.496ZM494.91 58.424L494.031 58.9008L494.91 58.424ZM494.91 84.152L495.785 84.6351L495.789 84.6288L494.91 84.152ZM486.558 92.984L487.072 93.8416L487.084 93.8346L486.558 92.984ZM458.622 88.472L459.447 87.9073L457.622 85.2396V88.472H458.622ZM458.622 116.12V117.12H459.622V116.12H458.622ZM481.662 81.464L482.378 82.1623L481.662 81.464ZM481.662 61.016L482.386 60.3263L481.662 61.016ZM462.174 61.016L461.45 60.3263L461.449 60.3268L462.174 61.016ZM462.174 81.464L461.441 82.1444L461.449 82.1535L461.458 82.1623L462.174 81.464ZM447.334 116.12V47.384H445.334V116.12H447.334ZM446.334 48.384H457.278V46.384H446.334V48.384ZM456.297 47.5775L457.641 54.3935L459.603 54.0065L458.259 47.1905L456.297 47.5775ZM459.43 54.7882C460.884 52.7894 462.804 51.0158 465.209 49.4739L464.13 47.7901C461.543 49.4482 459.431 51.3866 457.813 53.6118L459.43 54.7882ZM465.2 49.48C467.556 48.0074 470.652 47.232 474.558 47.232V45.232C470.4 45.232 466.904 46.0566 464.14 47.784L465.2 49.48ZM474.558 47.232C478.868 47.232 482.683 48.2763 486.032 50.3466L487.084 48.6454C483.393 46.3637 479.208 45.232 474.558 45.232V47.232ZM486.032 50.3466C489.398 52.4273 492.063 55.272 494.031 58.9008L495.789 57.9472C493.661 54.024 490.758 50.9167 487.084 48.6454L486.032 50.3466ZM494.031 58.9008C495.99 62.5139 496.982 66.6346 496.982 71.288H498.982C498.982 66.3414 497.925 61.8861 495.789 57.9472L494.031 58.9008ZM496.982 71.288C496.982 75.9414 495.99 80.0621 494.031 83.6752L495.789 84.6288C497.925 80.6898 498.982 76.2346 498.982 71.288H496.982ZM494.034 83.6689C492.067 87.2342 489.402 90.0501 486.032 92.1334L487.084 93.8346C490.754 91.5659 493.656 88.4938 495.785 84.6351L494.034 83.6689ZM486.043 92.1265C482.693 94.1368 478.874 95.152 474.558 95.152V97.152C479.202 97.152 483.383 96.0552 487.072 93.8415L486.043 92.1265ZM474.558 95.152C471.099 95.152 468.122 94.504 465.597 93.2416L464.703 95.0304C467.554 96.456 470.848 97.152 474.558 97.152V95.152ZM465.597 93.2416C463.058 91.972 461.013 90.1962 459.447 87.9073L457.796 89.0367C459.558 91.6118 461.866 93.612 464.703 95.0304L465.597 93.2416ZM457.622 88.472V116.12H459.622V88.472H457.622ZM458.622 115.12H446.334V117.12H458.622V115.12ZM471.966 86.4C476.12 86.4 479.616 84.9927 482.378 82.1623L480.946 80.7657C478.587 83.1833 475.62 84.4 471.966 84.4V86.4ZM482.378 82.1623C485.145 79.3259 486.502 75.6708 486.502 71.288H484.502C484.502 75.2252 483.299 78.3541 480.946 80.7657L482.378 82.1623ZM486.502 71.288C486.502 66.9048 485.145 63.2233 482.386 60.3263L480.938 61.7057C483.299 64.1847 484.502 67.3512 484.502 71.288H486.502ZM482.386 60.3263C479.626 57.429 476.128 55.984 471.966 55.984V57.984C475.612 57.984 478.577 59.227 480.938 61.7057L482.386 60.3263ZM471.966 55.984C467.745 55.984 464.212 57.4254 461.45 60.3263L462.898 61.7057C465.255 59.2306 468.25 57.984 471.966 57.984V55.984ZM461.449 60.3268C458.75 63.1644 457.43 66.8165 457.43 71.192H459.43C459.43 67.2475 460.606 64.1155 462.898 61.7052L461.449 60.3268ZM457.43 71.192C457.43 75.568 458.75 79.2464 461.441 82.1444L462.907 80.7835C460.606 78.3056 459.43 75.136 459.43 71.192H457.43ZM461.458 82.1623C464.223 84.9962 467.753 86.4 471.966 86.4V84.4C468.243 84.4 465.245 83.1798 462.89 80.7657L461.458 82.1623Z" fill="white" mask="url(#path-2-outside-1_1_6072)"/>
</svg>
