<svg width="60" height="60" viewBox="0 0 60 60" fill="none" xmlns="http://www.w3.org/2000/svg">
<path d="M48.2016 14.4468L14.4516 48.1968C14.0998 48.5486 13.6226 48.7463 13.1251 48.7463C12.6275 48.7463 12.1503 48.5486 11.7985 48.1968C11.4467 47.845 11.249 47.3678 11.249 46.8702C11.249 46.3727 11.4467 45.8955 11.7985 45.5437L45.5485 11.7937C45.9 11.4418 46.3769 11.2441 46.8742 11.2438C47.3716 11.2436 47.8486 11.441 48.2005 11.7925C48.5523 12.144 48.7501 12.6209 48.7503 13.1182C48.7505 13.6156 48.5531 14.0926 48.2016 14.4444V14.4468ZM11.8454 23.7749C10.2631 22.1923 9.37429 20.046 9.37451 17.8081C9.37473 15.5702 10.2639 13.424 11.8465 11.8417C13.4291 10.2594 15.5755 9.37063 17.8134 9.37085C20.0513 9.37107 22.1975 10.2603 23.7797 11.8429C25.362 13.4255 26.2508 15.5718 26.2506 17.8097C26.2504 20.0476 25.3612 22.1938 23.7786 23.7761C22.196 25.3584 20.0496 26.2472 17.8117 26.2469C15.5738 26.2467 13.4277 25.3575 11.8454 23.7749ZM13.1251 17.8124C13.1257 18.5832 13.3163 19.3418 13.6801 20.0213C14.0439 20.7008 14.5697 21.2801 15.2108 21.7079C15.8519 22.1357 16.5886 22.3988 17.3557 22.4739C18.1227 22.549 18.8965 22.4339 19.6084 22.1386C20.3203 21.8433 20.9485 21.377 21.4372 20.781C21.9259 20.1851 22.2601 19.4778 22.4103 18.7218C22.5604 17.9658 22.5218 17.1845 22.2979 16.447C22.074 15.7095 21.6717 15.0386 21.1266 14.4937C20.4708 13.838 19.6352 13.3916 18.7256 13.211C17.816 13.0304 16.8733 13.1236 16.0167 13.4789C15.1601 13.8342 14.4281 14.4355 13.9134 15.2069C13.3987 15.9783 13.1243 16.8851 13.1251 17.8124ZM50.6251 42.1874C50.6246 44.1395 49.9473 46.0309 48.7086 47.5396C47.47 49.0483 45.7465 50.0808 43.8319 50.4612C41.9173 50.8416 39.93 50.5464 38.2086 49.6259C36.4873 48.7053 35.1383 47.2164 34.3917 45.4128C33.645 43.6092 33.5468 41.6025 34.1138 39.7347C34.6808 37.8668 35.8779 36.2533 37.5012 35.1691C39.1245 34.0849 41.0734 33.5971 43.016 33.7887C44.9586 33.9804 46.7747 34.8397 48.1548 36.2202C48.9407 37.0021 49.5637 37.932 49.9877 38.9563C50.4118 39.9806 50.6284 41.0788 50.6251 42.1874ZM46.8751 42.1874C46.8753 41.1029 46.4995 40.0519 45.8117 39.2134C45.1238 38.375 44.1666 37.8009 43.103 37.5892C42.0393 37.3774 40.9352 37.5409 39.9787 38.052C39.0221 38.563 38.2724 39.3899 37.8572 40.3918C37.442 41.3937 37.387 42.5085 37.7017 43.5463C38.0163 44.5842 38.6811 45.4808 39.5827 46.0835C40.4843 46.6862 41.567 46.9575 42.6463 46.8514C43.7256 46.7453 44.7347 46.2682 45.5016 45.5015C45.9383 45.0673 46.2845 44.5509 46.5203 43.982C46.756 43.4131 46.8766 42.8032 46.8751 42.1874Z" fill="#EE0255"/>
</svg>
