<svg width="60" height="60" viewBox="0 0 60 60" fill="none" xmlns="http://www.w3.org/2000/svg">
<path d="M8.14687 9.84382C7.94516 10.0187 7.78311 10.2346 7.67155 10.4771C7.55999 10.7196 7.50151 10.9831 7.5 11.2501V50.6251C7.5 51.1224 7.69754 51.5993 8.04918 51.9509C8.40081 52.3025 8.87772 52.5001 9.375 52.5001C9.87228 52.5001 10.3492 52.3025 10.7008 51.9509C11.0525 51.5993 11.25 51.1224 11.25 50.6251V40.2587C17.5289 35.2993 22.9383 37.9735 29.168 41.0579C33.0117 42.9587 37.1508 45.0071 41.5898 45.0071C44.8547 45.0071 48.2789 43.8938 51.8602 40.7884C52.0619 40.6135 52.2239 40.3976 52.3355 40.1551C52.447 39.9126 52.5055 39.649 52.507 39.3821V11.2501C52.5062 10.8902 52.4018 10.5381 52.2063 10.236C52.0108 9.93381 51.7325 9.69429 51.4045 9.54602C51.0766 9.39775 50.7129 9.34699 50.3569 9.39979C50.0009 9.4526 49.6676 9.60674 49.3969 9.84382C42.8344 15.5227 37.275 12.7712 30.832 9.58132C24.157 6.27195 16.5891 2.52898 8.14687 9.84382ZM48.75 38.4962C42.4711 43.4555 37.0617 40.779 30.832 37.697C24.9727 34.8024 18.4547 31.5727 11.25 35.7282V12.1384C17.5289 7.17898 22.9383 9.8532 29.168 12.9352C35.0273 15.8298 41.5477 19.0594 48.75 14.904V38.4962Z" fill="#9B02EE"/>
</svg>
