<svg width="32" height="32" viewBox="0 0 32 32" fill="none" xmlns="http://www.w3.org/2000/svg">
<path d="M29.3125 14.2975L28.6588 14.875C28.5623 14.9728 28.4466 15.0496 28.3191 15.1007C28.1916 15.1518 28.0549 15.1761 27.9175 15.1721C27.7802 15.168 27.6452 15.1357 27.5209 15.0771C27.3966 15.0186 27.2857 14.935 27.1951 14.8317C27.1046 14.7284 27.0363 14.6075 26.9945 14.4766C26.9527 14.3458 26.9383 14.2077 26.9523 14.071C26.9662 13.9343 27.0082 13.802 27.0755 13.6822C27.1429 13.5625 27.2342 13.4579 27.3438 13.375L27.9975 12.8037C27.9975 12.8037 27.9975 12.8037 27.9975 12.795L26.9138 12.7012C26.7825 12.69 26.6546 12.653 26.5376 12.5924C26.4206 12.5317 26.3167 12.4486 26.2318 12.3478C26.1468 12.247 26.0826 12.1305 26.0428 12.0048C26.0029 11.8792 25.9882 11.7469 25.9994 11.6156C26.0107 11.4843 26.0477 11.3565 26.1083 11.2395C26.1689 11.1224 26.252 11.0185 26.3528 10.9336C26.4537 10.8487 26.5702 10.7845 26.6958 10.7446C26.8215 10.7047 26.9537 10.69 27.085 10.7012L28.1725 10.795C28.5653 10.8277 28.9396 10.9758 29.2485 11.2205C29.5574 11.4653 29.787 11.7958 29.9087 12.1707C30.0304 12.5455 30.0386 12.948 29.9323 13.3275C29.826 13.707 29.6099 14.0466 29.3113 14.3037L29.3125 14.2975ZM21.725 19.6725L22.0825 21.2237C22.1121 21.3517 22.1665 21.4726 22.2428 21.5795C22.3191 21.6864 22.4156 21.7772 22.527 21.8468C22.6384 21.9164 22.7624 21.9634 22.8919 21.9851C23.0214 22.0067 23.154 22.0027 23.2819 21.9731C23.4099 21.9436 23.5307 21.8891 23.6377 21.8128C23.7446 21.7366 23.8354 21.64 23.905 21.5286C23.9746 21.4173 24.0215 21.2933 24.0432 21.1637C24.0649 21.0342 24.0608 20.9017 24.0313 20.7737L23.675 19.215L24.6575 18.3575C24.8574 18.1831 24.9799 17.9365 24.9979 17.6718C25.016 17.4071 24.9282 17.1462 24.7538 16.9462C24.5794 16.7463 24.3328 16.6239 24.0681 16.6058C23.8034 16.5878 23.5424 16.6756 23.3425 16.85L22.36 17.7087C22.0852 17.9476 21.8808 18.257 21.7689 18.6035C21.657 18.95 21.6419 19.3205 21.725 19.675V19.6725ZM17 6.39374V23.1012L17.0338 23.12L18.5188 24.0225C18.7455 24.1601 18.9084 24.3821 18.9714 24.6397C19.0345 24.8974 18.9926 25.1695 18.855 25.3962C18.7175 25.623 18.4954 25.7858 18.2378 25.8489C17.9802 25.9119 17.708 25.8701 17.4813 25.7325L16 24.83L9.62503 28.705C9.28824 28.908 8.8991 29.0071 8.50625 28.9901C8.1134 28.9732 7.73427 28.8407 7.41628 28.6094C7.09828 28.3781 6.85551 28.0582 6.71834 27.6897C6.58117 27.3212 6.55567 26.9204 6.64503 26.5375L8.32628 19.225L2.68753 14.2975C2.38887 14.0404 2.17283 13.7007 2.06654 13.3212C1.96025 12.9417 1.96845 12.5393 2.09011 12.1644C2.21177 11.7896 2.44146 11.459 2.75035 11.2143C3.05923 10.9695 3.43354 10.8215 3.82628 10.7887L11.2588 10.1462L14.16 3.22624C14.3115 2.86314 14.5671 2.55298 14.8945 2.33482C15.2219 2.11665 15.6066 2.00024 16 2.00024C16.3935 2.00024 16.7781 2.11665 17.1055 2.33482C17.433 2.55298 17.6885 2.86314 17.84 3.22624L20.75 10.1462L22.0925 10.2625C22.3577 10.2854 22.603 10.4127 22.7744 10.6164C22.9457 10.8201 23.0292 11.0835 23.0063 11.3487C22.9834 11.614 22.8561 11.8592 22.6524 12.0306C22.4487 12.202 22.1852 12.2854 21.92 12.2625L20.575 12.1462C20.2123 12.1143 19.8651 11.9839 19.5711 11.7691C19.277 11.5543 19.0471 11.2633 18.9063 10.9275L17 6.39374ZM14.9663 23.125L15 23.1062V6.39374L13.1 10.9212C12.9592 11.2571 12.7293 11.5481 12.4353 11.7628C12.1412 11.9776 11.794 12.108 11.4313 12.14L4.00003 12.7812C3.99967 12.7854 3.99967 12.7896 4.00003 12.7937L9.64128 17.7112C9.91543 17.9501 10.1193 18.2591 10.231 18.6051C10.3426 18.9511 10.3579 19.321 10.275 19.675L8.58503 26.9925L14.9663 23.125ZM24.955 24.7812C24.9254 24.6533 24.8709 24.5324 24.7945 24.4255C24.7182 24.3187 24.6215 24.2279 24.5101 24.1583C24.3987 24.0888 24.2746 24.0419 24.1451 24.0203C24.0155 23.9987 23.883 24.0029 23.755 24.0325C23.6271 24.0621 23.5062 24.1167 23.3993 24.193C23.2925 24.2693 23.2017 24.366 23.1321 24.4774C23.0626 24.5889 23.0157 24.7129 22.9941 24.8424C22.9725 24.972 22.9767 25.1045 23.0063 25.2325L23.4188 27L22.02 26.15C21.9078 26.0818 21.7831 26.0364 21.6533 26.0163C21.5235 25.9963 21.391 26.002 21.2633 26.0332C21.1357 26.0643 21.0155 26.1203 20.9095 26.198C20.8035 26.2756 20.7139 26.3733 20.6457 26.4856C20.5775 26.5979 20.532 26.7225 20.512 26.8523C20.4919 26.9822 20.4977 27.1147 20.5288 27.2423C20.56 27.3699 20.616 27.4902 20.6936 27.5962C20.7713 27.7021 20.869 27.7918 20.9813 27.86L22.385 28.7125C22.7218 28.9155 23.111 29.0146 23.5038 28.9976C23.8967 28.9807 24.2758 28.8482 24.5938 28.6169C24.9118 28.3856 25.1545 28.0657 25.2917 27.6972C25.4289 27.3287 25.4544 26.9279 25.365 26.545L24.955 24.7812Z" fill="#333333"/>
</svg>
