<?xml version="1.0" encoding="UTF-8" ?><!DOCTYPE svg PUBLIC "-//W3C//DTD SVG 1.1//EN" "http://www.w3.org/Graphics/SVG/1.1/DTD/svg11.dtd"><svg xmlns="http://www.w3.org/2000/svg" width="200" height="200" viewBox="0 0 150 150"><path fill="#fff" d="M0 0h150v150h-2.87c-4.03-8.33-3.97-20.05-13.41-24.69-10-6.68-23.34-5.55-32.8-13.22-5.82-3.79-11.78-10.63-8.84-18.07 3.78-7.68 8.62-14.9 10.58-23.38 3.14-13.09 4.04-27.96-3.4-39.82-5.14-10.04-17.07-15.3-28.03-14.46-8.39.34-15.06 6.57-20.45 12.41-9.64 13.03-8.73 30.84-4.16 45.61 2.29 7.46 7.65 13.56 9.8 21.05.96 7.06-4.42 13.35-9.66 17.33-10.92 6.57-25.6 6.44-34.54 16.44-4.86 6.01-5.96 14-9.31 20.8H0V0Z"/><path d="M50.78 28.77c5.39-5.84 12.06-12.07 20.45-12.41 10.96-.84 22.89 4.42 28.03 14.46 7.44 11.86 6.54 26.73 3.4 39.82-1.96 8.48-6.8 15.7-10.58 23.38-2.94 7.44 3.02 14.28 8.84 18.07 9.46 7.67 22.8 6.54 32.8 13.22 9.44 4.64 9.38 16.36 13.41 24.69H2.91c3.35-6.8 4.45-14.79 9.31-20.8 8.94-10 23.62-9.87 34.54-16.44 5.24-3.98 10.62-10.27 9.66-17.33-2.15-7.49-7.51-13.59-9.8-21.05-4.57-14.77-5.48-32.58 4.16-45.61Z"/></svg>