<svg width="60" height="60" viewBox="0 0 60 60" fill="none" xmlns="http://www.w3.org/2000/svg">
<path d="M57.9633 29.2406C57.8812 29.0555 55.8961 24.6516 51.4828 20.2383C45.6023 14.3578 38.175 11.25 30 11.25C21.825 11.25 14.3976 14.3578 8.51717 20.2383C4.10388 24.6516 2.10935 29.0625 2.0367 29.2406C1.93009 29.4804 1.875 29.7399 1.875 30.0023C1.875 30.2648 1.93009 30.5243 2.0367 30.7641C2.11873 30.9492 4.10388 35.3508 8.51717 39.7641C14.3976 45.6422 21.825 48.75 30 48.75C38.175 48.75 45.6023 45.6422 51.4828 39.7641C55.8961 35.3508 57.8812 30.9492 57.9633 30.7641C58.0699 30.5243 58.125 30.2648 58.125 30.0023C58.125 29.7399 58.0699 29.4804 57.9633 29.2406ZM30 45C22.7859 45 16.4836 42.3773 11.2664 37.207C9.12571 35.0782 7.30448 32.6507 5.85935 30C7.30409 27.3491 9.12536 24.9215 11.2664 22.793C16.4836 17.6227 22.7859 15 30 15C37.214 15 43.5164 17.6227 48.7336 22.793C50.8784 24.921 52.7036 27.3486 54.1523 30C52.4625 33.1547 45.1008 45 30 45ZM30 18.75C27.7749 18.75 25.5999 19.4098 23.7498 20.646C21.8998 21.8821 20.4578 23.6391 19.6063 25.6948C18.7548 27.7505 18.5321 30.0125 18.9661 32.1948C19.4002 34.3771 20.4717 36.3816 22.045 37.955C23.6184 39.5283 25.6229 40.5998 27.8052 41.0338C29.9875 41.4679 32.2495 41.2451 34.3052 40.3936C36.3608 39.5422 38.1178 38.1002 39.354 36.2502C40.5902 34.4001 41.25 32.225 41.25 30C41.2469 27.0173 40.0606 24.1576 37.9515 22.0485C35.8424 19.9394 32.9827 18.7531 30 18.75ZM30 37.5C28.5166 37.5 27.0666 37.0601 25.8332 36.236C24.5998 35.4119 23.6385 34.2406 23.0709 32.8701C22.5032 31.4997 22.3547 29.9917 22.6441 28.5368C22.9335 27.082 23.6478 25.7456 24.6967 24.6967C25.7456 23.6478 27.0819 22.9335 28.5368 22.6441C29.9917 22.3547 31.4997 22.5032 32.8701 23.0709C34.2405 23.6386 35.4119 24.5999 36.236 25.8332C37.0601 27.0666 37.5 28.5166 37.5 30C37.5 31.9891 36.7098 33.8968 35.3033 35.3033C33.8968 36.7098 31.9891 37.5 30 37.5Z" fill="#2502EE"/>
</svg>
